<svg xmlns="http://www.w3.org/2000/svg" xmlns:svg="http://www.w3.org/2000/svg" xmlns:xlink="http://www.w3.org/1999/xlink" id="svg3816" width="308.78" height="325.79" version="1.1"><defs id="defs3818"><linearGradient id="linearGradient3753" x1="1475.457" x2="876.954" y1="1033.013" y2="1319.926" gradientUnits="userSpaceOnUse" xlink:href="#linearGradient3731"/><linearGradient id="linearGradient3731"><stop style="stop-color:#6f918a;stop-opacity:1" id="stop3733" offset="0"/><stop style="stop-color:#6f918a;stop-opacity:0" id="stop3735" offset="1"/></linearGradient><linearGradient id="linearGradient3751" x1="1475.457" x2="876.954" y1="1033.013" y2="1319.926" gradientUnits="userSpaceOnUse" xlink:href="#linearGradient3731"/><linearGradient id="linearGradient3745" x1="1475.457" x2="876.954" y1="1033.013" y2="1319.926" gradientUnits="userSpaceOnUse" xlink:href="#linearGradient3731"/><linearGradient id="linearGradient3743" x1="1475.457" x2="876.954" y1="1033.013" y2="1319.926" gradientUnits="userSpaceOnUse" xlink:href="#linearGradient3731"/><linearGradient id="linearGradient3737" x1="1475.457" x2="876.954" y1="1033.013" y2="1319.926" gradientUnits="userSpaceOnUse" xlink:href="#linearGradient3731"/><linearGradient id="linearGradient3755" x1="1475.457" x2="876.954" y1="1033.013" y2="1319.926" gradientUnits="userSpaceOnUse" xlink:href="#linearGradient3731"/><linearGradient id="linearGradient3814" x1="1475.457" x2="876.954" y1="1033.013" y2="1319.926" gradientUnits="userSpaceOnUse" xlink:href="#linearGradient3731"/></defs><g id="layer1" transform="translate(34.389891,-12.324226)"><g style="fill:url(#linearGradient3737);fill-opacity:1" id="g3727" transform="matrix(-0.21534666,-0.38727626,0.38727626,-0.21534666,-22.568987,851.18938)"><path style="fill:url(#linearGradient3814);fill-opacity:1;fill-rule:evenodd;stroke:none" id="path3729" d="m 1519.1253,921.97391 c 1.5263,1.89879 58.968,135.42389 -20.7176,278.72929 -95.6499,172.0153 -282.3848,173.492 -286.3294,171.2986 l 0.7739,69.1982 -124.45,-153.2 125,-149 0,80.3108 c 3.1972,-0.1207 99.3148,-0.5026 151.8763,-92.6355 34.47,-60.421 18.9219,-124.7238 18.5012,-126.6267 l 98.9193,17.4404 36.4263,-95.51509 z"/></g><g id="g3739" transform="matrix(0.44306441,0.00714245,-0.00714245,0.44306441,-407.80472,-309.09273)" style="fill:url(#linearGradient3745);fill-opacity:1"><path id="path3741" d="m 1519.1253,921.97391 c 1.5263,1.89879 58.968,135.42389 -20.7176,278.72929 -95.6499,172.0153 -282.3848,173.492 -286.3294,171.2986 l 0.7739,69.1982 -124.45,-153.2 125,-149 0,80.3108 c 3.1972,-0.1207 99.3148,-0.5026 151.8763,-92.6355 34.47,-60.421 18.9219,-124.7238 18.5012,-126.6267 l 98.9193,17.4404 36.4263,-95.51509 z" style="fill:url(#linearGradient3743);fill-opacity:1;fill-rule:evenodd;stroke:none"/></g><g style="fill:url(#linearGradient3753);fill-opacity:1" id="g3747" transform="matrix(-0.22771775,0.38013381,-0.38013381,-0.22771775,789.64693,-62.575598)"><path style="fill:url(#linearGradient3751);fill-opacity:1;fill-rule:evenodd;stroke:none" id="path3749" d="m 1519.1253,921.97391 c 1.5263,1.89879 58.968,135.42389 -20.7176,278.72929 -95.6499,172.0153 -282.3848,173.492 -286.3294,171.2986 l 0.7739,69.1982 -124.45,-153.2 125,-149 0,80.3108 c 3.1972,-0.1207 99.3148,-0.5026 151.8763,-92.6355 34.47,-60.421 18.9219,-124.7238 18.5012,-126.6267 l 98.9193,17.4404 36.4263,-95.51509 z"/></g></g><metadata/></svg>